<?xml version="1.0" encoding="utf-8"?>
<!-- Generator: Adobe Illustrator 22.0.1, SVG Export Plug-In . SVG Version: 6.00 Build 0)  -->
<svg version="1.1" id="Layer_1" xmlns="http://www.w3.org/2000/svg" xmlns:xlink="http://www.w3.org/1999/xlink" x="0px" y="0px"
	 viewBox="0 0 200 200" style="enable-background:new 0 0 200 200;" xml:space="preserve">
<style type="text/css">
	.st0{fill:#1978BE;}
</style>
<path class="st0" d="M182.9,62.9C173.1,26.1,139,0,100,0C61.2,0,27.2,26.1,17.2,62.8C7.4,64.6,0,73.1,0,83.3v23.4
	c0,9.1,6,16.9,14.3,19.7v9.8c0,29.4,24.2,53.3,54.1,53.3H75c2.7,6.2,8.9,10.6,16.1,10.6h17.8c9.6,0,17.5-7.7,17.5-17.3
	c0-9.5-7.8-17.3-17.5-17.3H91.1c-7.2,0-13.5,4.4-16.1,10.6h-6.7c-22.3,0-40.5-17.9-40.5-39.9v-15.4c0-3.7-3-6.7-6.8-6.7
	c-4.1,0-7.5-3.3-7.5-7.4V83.3c0-4.1,3.4-7.4,7.4-7.4l1.6,0c0,0,0,0,0,0c3.2,0,6-2.2,6.7-5.4c6.9-33.1,36.6-57.1,70.7-57.1
	c34.3,0,64.1,24,70.7,57.1c0.6,3.1,3.4,5.4,6.7,5.4h1.5c4.1,0,7.5,3.3,7.5,7.4v23.4c0,4.1-3.4,7.4-7.5,7.4c-3.8,0-6.8,3-6.8,6.7
	c0,3.7,3,6.7,6.8,6.7c11.6,0,21.1-9.3,21.1-20.8V83.3C200,73.1,192.6,64.7,182.9,62.9z M91.1,178.9h17.8c2.2,0,3.9,1.7,3.9,3.9
	c0,2.1-1.8,3.9-3.9,3.9H91.1c-2.2,0-3.9-1.7-3.9-3.9C87.2,180.6,88.9,178.9,91.1,178.9z M100,32.2c-35.1,0-63.6,28.2-63.6,62.8
	c0,34.6,28.5,62.8,63.6,62.8s63.6-28.2,63.6-62.8C163.6,60.4,135.1,32.2,100,32.2z M100,144.3c-27.6,0-50-22.1-50-49.4
	c0-27.2,22.4-49.4,50-49.4s50,22.1,50,49.4C150,122.2,127.6,144.3,100,144.3z"/>
</svg>
