<?xml version="1.0" encoding="utf-8"?>
<!-- Generator: Adobe Illustrator 22.0.1, SVG Export Plug-In . SVG Version: 6.00 Build 0)  -->
<svg version="1.1" id="Layer_1" xmlns="http://www.w3.org/2000/svg" xmlns:xlink="http://www.w3.org/1999/xlink" x="0px" y="0px"
	 viewBox="0 0 200 200" style="enable-background:new 0 0 200 200;" xml:space="preserve">
<style type="text/css">
	.st0{fill:#1978BE;}
</style>
<path class="st0" d="M36.3,26.7c-2.6,0-5,1-6.8,2.8c-3.7,3.7-3.7,9.8,0,13.5c1.8,1.8,4.2,2.8,6.8,2.8s5-1,6.8-2.8
	c3.7-3.7,3.7-9.8,0-13.5C41.3,27.7,38.8,26.7,36.3,26.7z M38.5,38.6c-0.6,0.6-1.4,0.9-2.3,0.9c-0.9,0-1.7-0.3-2.3-0.9
	c-1.2-1.2-1.2-3.3,0-4.5c0.6-0.6,1.4-0.9,2.3-0.9c0.9,0,1.7,0.3,2.3,0.9C39.8,35.3,39.8,37.3,38.5,38.6z M170.5,170.5
	c3.7-3.7,3.7-9.8,0-13.5c-1.8-1.8-4.2-2.8-6.8-2.8s-5,1-6.8,2.8c-3.7,3.7-3.7,9.8,0,13.5c1.8,1.8,4.2,2.8,6.8,2.8
	S168.7,172.3,170.5,170.5z M161.4,161.5c0.6-0.6,1.4-0.9,2.3-0.9c0.9,0,1.7,0.3,2.3,0.9c1.2,1.2,1.2,3.3,0,4.5
	c-0.6,0.6-1.4,0.9-2.3,0.9c-0.9,0-1.7-0.3-2.3-0.9C160.2,164.7,160.2,162.7,161.4,161.5z M54.1,97.7c0.6,0.6,1.4,0.9,2.3,0.9
	c0.8,0,1.6-0.3,2.3-0.9c1.2-1.2,1.2-3.3,0-4.5l-51-50.9L42.3,7.7l22.6,22.6l-9.8,9.8c-1.2,1.2-1.2,3.3,0,4.5
	c0.6,0.6,1.4,0.9,2.3,0.9c0.8,0,1.6-0.3,2.3-0.9l9.8-9.8l8.5,8.5l-9.8,9.8c-1.2,1.2-1.2,3.3,0,4.5c0.6,0.6,1.4,0.9,2.3,0.9
	s1.6-0.3,2.3-0.9l9.8-9.8l8.5,8.5l-9.8,9.8c-1.2,1.2-1.2,3.3,0,4.5c0.6,0.6,1.4,0.9,2.3,0.9s1.6-0.3,2.3-0.9l12-12
	c1.2-1.2,1.2-3.3,0-4.5L44.6,0.9c-1.2-1.2-3.3-1.2-4.5,0L0.9,40.1c-1.2,1.2-1.2,3.3,0,4.5L54.1,97.7z M145.9,102.3
	c-1.2-1.2-3.3-1.2-4.5,0l-12,12c-1.2,1.2-1.2,3.3,0,4.5c0.6,0.6,1.4,0.9,2.3,0.9c0.8,0,1.6-0.3,2.3-0.9l9.8-9.8l8.5,8.5l-9.8,9.8
	c-1.2,1.2-1.2,3.3,0,4.5c0.6,0.6,1.4,0.9,2.3,0.9c0.8,0,1.6-0.3,2.3-0.9l9.8-9.8l8.5,8.5l-9.8,9.8c-1.2,1.2-1.2,3.3,0,4.5
	c0.6,0.6,1.4,0.9,2.3,0.9c0.8,0,1.6-0.3,2.3-0.9l9.8-9.8l22.6,22.6L158,192.2l-50.9-50.9c-1.2-1.2-3.3-1.2-4.5,0s-1.2,3.3,0,4.5
	l53.2,53.2c0.6,0.6,1.4,0.9,2.3,0.9c0.8,0,1.6-0.3,2.3-0.9l39.1-39.1c1.2-1.2,1.2-3.3,0-4.5L145.9,102.3z M169.1,65.5l26.3-26.3
	c6.2-6.2,6.2-16.3,0-22.6l-12-12c-6.2-6.2-16.3-6.2-22.6,0l-6,6c-1.2,1.2-1.2,3.3,0,4.5s3.3,1.2,4.5,0l6-6c3.7-3.7,9.8-3.7,13.5,0
	l12,12c3.7,3.7,3.7,9.8,0,13.5L178,47.5l-27.8-27.8c-1.2-1.2-3.3-1.2-4.5,0l-11.2,11.2L22,143.4l0,0l-0.1,0.1
	c-0.3,0.3-0.5,0.6-0.6,0.9L9,174.3l0,0l-8.8,21.3c-0.5,1.2-0.2,2.6,0.7,3.5c0.6,0.6,1.4,0.9,2.3,0.9c0.4,0,0.8-0.1,1.2-0.2l21.3-8.8
	l0,0l29.8-12.3c0.3-0.1,0.7-0.3,0.9-0.6c0,0,0.1,0,0.1-0.1l0,0L169.1,65.5z M55.4,170.1c-0.9-1.5-1.9-2.8-3.1-4.1
	c-2.5-2.5-5.5-4.2-8.8-5.1L127,77.6c1.2-1.2,1.2-3.3,0-4.5s-3.3-1.2-4.5,0L39,156.4c-0.9-3.2-2.6-6.3-5.1-8.8
	c-1.2-1.2-2.6-2.3-4.1-3.1L136.7,37.7l10.5,10.5L134.5,61c-1.2,1.2-1.2,3.3,0,4.5c0.6,0.6,1.4,0.9,2.3,0.9c0.8,0,1.6-0.3,2.3-0.9
	l12.8-12.8l10.5,10.5L55.4,170.1z M25.3,184.3l-9.5-9.5l10.3-25c1.2,0.6,2.4,1.5,3.4,2.5c3,3,4.4,7.1,3.7,11c-0.2,1,0.2,2.1,0.9,2.8
	s1.8,1.1,2.8,0.9c3.8-0.7,7.9,0.7,11,3.7c1,1,1.8,2.2,2.5,3.4L25.3,184.3z M147.9,26.5l25.6,25.6l-6.7,6.7l-25.6-25.6L147.9,26.5z
	 M13.1,181.1l5.8,5.8l-9.8,4L13.1,181.1z"/>
</svg>
