<?xml version="1.0" encoding="utf-8"?>
<!-- Generator: Adobe Illustrator 22.0.1, SVG Export Plug-In . SVG Version: 6.00 Build 0)  -->
<svg version="1.1" id="Layer_1" xmlns="http://www.w3.org/2000/svg" xmlns:xlink="http://www.w3.org/1999/xlink" x="0px" y="0px"
	 viewBox="0 0 200 200" style="enable-background:new 0 0 200 200;" xml:space="preserve">
<style type="text/css">
	.st0{fill:#1978BE;}
</style>
<path class="st0" d="M190,117.9l-15.1-15.1c-2.1-2.1-4.3-3-6.9-3c-2.3,0-4.3,0.9-6.1,2.6l-12,11.8l-48.1,48.1
	c-0.9,1.1-1.3,2-1.5,2.4l-8,28.5c-0.2,0.6-0.3,1.2-0.3,1.8c0,2.4,2.3,5,5.4,5c0.7,0,1.2-0.1,1.6-0.2l28.3-8.2c1-0.3,1.8-0.6,2.3-1.2
	l48.4-48.3l11.8-11.8c1.6-1.6,2.4-3.5,2.7-5.9C192.5,121.8,191.6,119.5,190,117.9z M123,181.8l-17.8,5l5.2-17.8l43.3-43.3l12.8,12.6
	L123,181.8z M174.1,130.7l-12.8-12.6l6.9-6.9l12.6,12.6L174.1,130.7z M116,94.2H31.8c-3,0-5.4,2.3-5.4,5.4s2.3,5.5,5.4,5.5H116
	c3,0,5.4-2.4,5.4-5.5S119,94.2,116,94.2z M121.3,123.8c0-3-2.3-5.4-5.4-5.4H31.8c-3,0-5.4,2.3-5.4,5.4s2.3,5.5,5.4,5.5H116
	C119,129.3,121.3,126.9,121.3,123.8z M70.8,142.5H31.8c-3,0-5.4,2.3-5.4,5.4s2.3,5.4,5.4,5.4h39.1c3,0,5.5-2.3,5.5-5.4
	S73.9,142.5,70.8,142.5z M70.8,166.8H31.8c-3,0-5.4,2.3-5.4,5.4c0,3,2.3,5.4,5.4,5.4h39.1c3,0,5.5-2.3,5.5-5.4
	C76.3,169.2,73.9,166.8,70.8,166.8z M18.4,188.3V11.7c0-0.7,0.3-1,1-1h40.1v58.2c0,6.7,5.1,12,11.7,12h58.1v32.9h10.9V81V70.1H140
	L70.2,0.2L70,0H59.5H19.3c-3.3,0-6.2,1.2-8.4,3.4c-2.3,2.3-3.4,5.1-3.4,8.3v176.5c0,6.7,5.2,11.7,11.8,11.7h63.9v-10.8H19.3
	C18.7,189.2,18.4,188.9,18.4,188.3z M70.2,15.6l54.5,54.5H71.2c-0.7,0-1-0.4-1-1.2V15.6L70.2,15.6z"/>
</svg>
