<?xml version="1.0" encoding="utf-8"?>
<!-- Generator: Adobe Illustrator 22.0.1, SVG Export Plug-In . SVG Version: 6.00 Build 0)  -->
<svg version="1.1" id="Layer_1" xmlns="http://www.w3.org/2000/svg" xmlns:xlink="http://www.w3.org/1999/xlink" x="0px" y="0px"
	 viewBox="0 0 200 200" style="enable-background:new 0 0 200 200;" xml:space="preserve">
<style type="text/css">
	.st0{fill:#1978BE;}
</style>
<path class="st0" d="M128.8,111.1l51,51.1c-0.7-0.1-1.5-0.1-2.2-0.1c-4.6,0-8.7,1.8-11.7,5c-2.7,2.9-4.2,6.9-4.2,10.9
	c0,0.8,0.1,1.5,0.1,2.3L122,140.4l10.9-10.9c2.3-2.3,2.3-6,0-8.3l-7.1-7.1L128.8,111.1 M193.3,179.1c0.7,3.9-0.6,7.9-3.7,11.1
	c-2.5,2.5-5.7,3.9-9,3.9c-0.7,0-1.4-0.1-2.1-0.2C187.1,193.5,192.9,187.7,193.3,179.1 M128.8,102.8l-11.2,11.3l11.2,11.3l-15,15
	l53.8,53.9c3.8,3.8,8.4,5.6,13.1,5.6s9.4-1.9,13.1-5.6c7.5-7.5,7.5-18.8,0-26.3L128.8,102.8L128.8,102.8z M177.5,188.1
	c-5,0-10-3.8-10-10c0-5,3.8-10,10-10s10,3.8,10,10S183.8,188.1,177.5,188.1L177.5,188.1z M50,5.9c11.7,0,22.8,4.6,31.2,13
	c8.4,8.4,13,19.5,13,31.3c0,6.6-1,12.1-3.3,17.9c-0.3,0.7-0.4,1.5-0.4,2.3l-4.1,4.2l-7.1-7.1c-1.1-1.1-2.6-1.7-4.1-1.7
	c-0.1,0-0.1,0-0.2,0c-1.6,0.1-3.1,0.8-4.2,2L52.4,88.3l-8.7,5.8c-10.2-2-19.5-7.1-26.3-14.4C9.9,71.5,5.9,61.3,5.9,50.2
	c0-3.2,0.2-6.1,0.7-8.9l29.3,29.4c1.1,1.1,2.6,1.7,4.1,1.7c1.5,0,3-0.6,4.1-1.7l26.3-26.3c2.3-2.3,2.3-6,0-8.3L41.1,6.6
	C43.9,6.1,46.8,5.9,50,5.9 M50,0c-7.5,0-13.8,1.3-20,3.8l36.3,36.4L40,66.5L3.8,30.1C1.3,36.4,0,42.6,0,50.2c0,26.3,20,46.4,45,50.2
	l11.3-7.5L75,71.5l11.2,11.3l11.2-11.3l-1.3-1.3c2.5-6.3,3.8-12.5,3.8-20.1C100,22.6,77.5,0,50,0L50,0z M189.9,8.2l2.9,3l-10.8,21.6
	l-12.7,4.2c-0.9,0.3-1.6,0.8-2.3,1.4L95.9,110c-2.3,2.3-2.3,6,0,8.3l6.9,6.9l-3.3,2.9c-2-1-4.7-1.8-7.7-1.8
	c-5.6,0-10.9,2.5-15.8,7.5c-0.5,0.5-1,1.1-1.4,1.6c-0.1-0.1-0.2-0.3-0.3-0.4l-8.8-8.8c-0.2-0.2-0.4-0.4-0.6-0.6
	c1.1-0.6,2.1-1.4,3.1-2.4c5-5.1,7.4-10.4,7-15.8c-0.2-2.8-1.1-5.2-2.2-7l2.5-2.9l6.9,6.9c1.1,1.1,2.6,1.7,4.1,1.7c0,0,0,0,0,0
	c1.6,0,3.1-0.6,4.2-1.8l70-71.5c0.5-0.5,0.9-1.2,1.2-1.9l5.3-12.9L189.9,8.2 M55,128.4L9.6,173.9c-1,1.1-1.6,2.4-1.7,3.8
	c-0.9-2-1.3-4-1.4-5.9c-0.1-2.6,0.5-4.4,0.8-5.3l25.6-25.6C42.8,130.9,49.5,129.3,55,128.4 M71.4,146.1c-0.9,5.5-2.6,12.3-11.8,21.5
	L34,193.3c-0.8,0.3-2.4,0.9-4.7,0.9c-2.1,0-4.3-0.5-6.5-1.4c1.4-0.1,2.7-0.7,3.7-1.7L71.4,146.1 M7.6,165.9L7.6,165.9L7.6,165.9
	 M191.2,1.3l-28.8,12.5l-6.2,15l-70,71.5L75,89l-10,11.3c0,0,10,7.5-1.2,18.8c-6.2,6.3-16.3-1.3-35,17.6C22.5,142.9,2.5,163,2.5,163
	S-5,175.5,10,190.6c7.5,7.5,14.4,9.4,19.4,9.4s8.1-1.9,8.1-1.9s20-20.1,26.3-26.3C81.2,154.2,75,142.9,80,137.9
	c4.4-4.4,8.4-5.8,11.7-5.8c5.1,0,8.3,3.3,8.3,3.3l11.3-10L100,114.1l71.3-71.5l15-5L200,10L191.2,1.3L191.2,1.3z M22.5,186.8
	l-8.8-8.8l47.5-47.6l8.8,8.8L22.5,186.8L22.5,186.8z"/>
</svg>
