<?xml version="1.0" encoding="utf-8"?>
<!-- Generator: Adobe Illustrator 22.0.1, SVG Export Plug-In . SVG Version: 6.00 Build 0)  -->
<svg version="1.1" id="Layer_1" xmlns="http://www.w3.org/2000/svg" xmlns:xlink="http://www.w3.org/1999/xlink" x="0px" y="0px"
	 viewBox="0 0 300 66" style="enable-background:new 0 0 300 66;" xml:space="preserve">
<style type="text/css">
	.st0{fill:#1173BC;}
</style>
<path class="st0" d="M298.8,66c-0.4,0-0.7-0.2-0.9-0.4c0,0-1-1.2-3-3.3c-0.4-0.5-0.4-1.2,0.1-1.6s1.2-0.3,1.7,0.1
	c2,2.1,3,3.4,3.1,3.4c0.4,0.5,0.3,1.2-0.2,1.6C299.3,65.9,299.1,66,298.8,66z M290.2,55.9c0.5-0.4,0.5-1.2,0-1.6
	c-2.2-2-4.5-4-6.8-6.1c-0.5-0.4-1.2-0.4-1.7,0.1c-0.4,0.4-0.4,1.2,0.1,1.6c2.3,2,4.6,4,6.8,6c0.2,0.2,0.5,0.3,0.8,0.3
	S290,56.2,290.2,55.9z M11.5,55.9c2.1-2,4.4-4,6.8-6c0.5-0.4,0.5-1.1,0.1-1.6c-0.4-0.4-1.2-0.5-1.7-0.1c-2.4,2.1-4.7,4.1-6.9,6.2
	c-0.5,0.4-0.5,1.2,0,1.6c0.2,0.2,0.5,0.3,0.8,0.3C11,56.3,11.3,56.2,11.5,55.9z M276.3,44.2c0.4-0.5,0.3-1.2-0.2-1.6
	c-2.4-1.8-4.9-3.7-7.4-5.4c-0.5-0.3-1.3-0.2-1.7,0.2c-0.4,0.5-0.3,1.2,0.2,1.6c2.5,1.7,5,3.5,7.3,5.4c0.2,0.2,0.5,0.2,0.7,0.2
	C275.8,44.6,276.1,44.4,276.3,44.2z M25.3,44.3c2.4-1.8,4.9-3.6,7.3-5.4c0.5-0.3,0.6-1.1,0.2-1.6c-0.4-0.5-1.1-0.6-1.6-0.2
	c-2.5,1.7-5,3.5-7.4,5.4c-0.5,0.4-0.6,1.1-0.2,1.6c0.2,0.2,0.6,0.4,0.9,0.4C24.8,44.6,25.1,44.5,25.3,44.3z M261.4,33.6
	c0.4-0.5,0.2-1.2-0.3-1.5c-2.6-1.6-5.3-3.2-7.9-4.8c-0.6-0.3-1.3-0.2-1.6,0.3s-0.2,1.2,0.4,1.5c2.6,1.5,5.3,3.1,7.8,4.7
	c0.2,0.2,0.4,0.2,0.7,0.2C260.8,34.1,261.2,33.9,261.4,33.6z M40.3,33.9c2.6-1.6,5.2-3.2,7.8-4.7c0.6-0.3,0.7-1,0.4-1.5
	s-1.1-0.7-1.6-0.3c-2.7,1.6-5.3,3.1-7.9,4.8c-0.5,0.3-0.7,1-0.3,1.5c0.2,0.3,0.6,0.5,1,0.5C39.8,34.1,40.1,34,40.3,33.9z
	 M245.4,24.4c0.3-0.5,0.1-1.2-0.5-1.5c-2.7-1.4-5.6-2.8-8.4-4c-0.6-0.2-1.3-0.1-1.6,0.5s0,1.2,0.5,1.5c2.8,1.2,5.6,2.6,8.3,4
	c0.2,0.1,0.4,0.2,0.6,0.2C244.8,25,245.2,24.8,245.4,24.4z M56.2,24.8c2.7-1.4,5.5-2.7,8.3-4c0.6-0.2,0.8-0.9,0.5-1.5
	s-1-0.7-1.6-0.5c-2.8,1.3-5.6,2.6-8.4,4c-0.6,0.3-0.8,1-0.5,1.5c0.2,0.3,0.6,0.6,1,0.6C55.8,25,56,24.9,56.2,24.8z M228.7,16.5
	c0.3-0.6,0-1.2-0.6-1.4c-2.9-1.2-5.8-2.3-8.7-3.3c-0.6-0.2-1.3,0.1-1.5,0.7s0.1,1.2,0.7,1.4c2.9,1,5.8,2.1,8.6,3.3
	c0.2,0.1,0.3,0.1,0.5,0.1C228,17.2,228.5,17,228.7,16.5z M72.9,17.1c2.8-1.2,5.7-2.2,8.6-3.3c0.6-0.2,0.9-0.8,0.7-1.4
	c-0.2-0.6-0.9-0.8-1.5-0.7c-2.9,1.1-5.9,2.1-8.7,3.3c-0.6,0.2-0.9,0.9-0.6,1.4c0.2,0.4,0.6,0.7,1.1,0.7
	C72.6,17.2,72.8,17.2,72.9,17.1z M211.2,10.3c0.2-0.6-0.1-1.2-0.8-1.4c-3-0.9-6-1.7-9.1-2.5c-0.6-0.2-1.3,0.2-1.4,0.7
	c-0.2,0.6,0.2,1.2,0.8,1.3c3,0.7,6,1.6,8.9,2.5c0.1,0,0.2,0.1,0.4,0.1C210.5,11,211,10.8,211.2,10.3z M90.3,10.9
	c3-0.9,6-1.7,8.9-2.5c0.6-0.2,1-0.7,0.8-1.3s-0.8-0.9-1.4-0.7c-3,0.7-6.1,1.6-9,2.5c-0.6,0.2-1,0.8-0.8,1.4c0.2,0.5,0.6,0.7,1.1,0.7
	C90.1,11,90.2,11,90.3,10.9z M193.1,5.6c0.1-0.6-0.3-1.2-0.9-1.3c-3.1-0.7-6.2-1.2-9.3-1.6c-0.6-0.1-1.2,0.3-1.4,0.9
	c-0.1,0.6,0.3,1.2,1,1.2c3.1,0.5,6.1,1.1,9.2,1.6c0.1,0,0.2,0,0.3,0C192.5,6.5,193,6.1,193.1,5.6z M108.3,6.4c3-0.6,6.1-1.2,9.2-1.6
	c0.6-0.1,1.1-0.7,1-1.2s-0.7-1-1.4-0.9c-3.1,0.5-6.2,1.1-9.3,1.6c-0.6,0.2-1,0.7-0.9,1.3c0.1,0.5,0.6,0.8,1.1,0.8
	C108.2,6.5,108.3,6.4,108.3,6.4z M174.6,2.6c0.1-0.6-0.4-1.2-1-1.2c-3.1-0.3-6.3-0.7-9.4-0.8c-0.6,0-1.2,0.4-1.3,1
	c0,0.6,0.4,1.2,1.1,1.2c3.1,0.2,6.2,0.5,9.3,0.8h0.1C174,3.5,174.5,3.1,174.6,2.6z M126.7,3.5c3.1-0.3,6.2-0.6,9.3-0.8
	c0.6-0.1,1.1-0.6,1.1-1.2s-0.6-1.1-1.3-1c-3.1,0.2-6.3,0.5-9.4,0.8c-0.6,0.1-1.1,0.6-1,1.2C125.5,3.2,126,3.6,126.7,3.5
	C126.6,3.5,126.7,3.5,126.7,3.5z M155.9,1.2c0-0.6-0.5-1.1-1.2-1.2c-3.1-0.1-6.3-0.1-9.4,0c-0.7,0-1.2,0.5-1.2,1.2
	c0,0.6,0.5,1.1,1.2,1.1c3.1-0.1,6.2-0.1,9.3,0l0,0C155.3,2.3,155.9,1.8,155.9,1.2z M2.1,65.6c0,0,1-1.2,3-3.3
	c0.4-0.5,0.4-1.2-0.1-1.6s-1.2-0.3-1.7,0.1c-2,2.1-3,3.4-3.1,3.4c-0.4,0.5-0.3,1.2,0.2,1.6C0.7,65.9,0.9,66,1.2,66
	S1.9,65.8,2.1,65.6z"/>
</svg>
