<?xml version="1.0" encoding="utf-8"?>
<!-- Generator: Adobe Illustrator 22.0.1, SVG Export Plug-In . SVG Version: 6.00 Build 0)  -->
<svg version="1.1" id="Layer_1" xmlns="http://www.w3.org/2000/svg" xmlns:xlink="http://www.w3.org/1999/xlink" x="0px" y="0px"
	 viewBox="0 0 200 200" style="enable-background:new 0 0 200 200;" xml:space="preserve">
<style type="text/css">
	.st0{fill:#1978BE;}
</style>
<path class="st0" d="M79.4,0H15.9C7.1,0,0,7.2,0,16.1v64.5c0,8.9,7.1,16.1,15.9,16.1h63.5c8.8,0,15.9-7.2,15.9-16.1V16.1
	C95.2,7.2,88.1,0,79.4,0z M88.9,80.6c0,5.3-4.3,9.7-9.5,9.7H15.9c-5.3,0-9.5-4.3-9.5-9.7V16.1c0-5.3,4.3-9.7,9.5-9.7h63.5
	c5.3,0,9.5,4.3,9.5,9.7V80.6z M79.4,45.2c0,1.8-1.4,3.2-3.2,3.2H50.8v25.8c0,1.8-1.4,3.2-3.2,3.2s-3.2-1.4-3.2-3.2V48.4H22.2
	c-1.8,0-3.2-1.4-3.2-3.2s1.4-3.2,3.2-3.2h22.2V19.4c0-1.8,1.4-3.2,3.2-3.2s3.2,1.4,3.2,3.2V42h25.4C77.9,41.9,79.4,43.4,79.4,45.2z
	 M184.1,0h-63.5c-8.8,0-15.9,7.2-15.9,16.1v64.5c0,8.9,7.1,16.1,15.9,16.1h63.5c8.8,0,15.9-7.2,15.9-16.1V16.1
	C200,7.2,192.9,0,184.1,0z M193.7,80.6c0,5.3-4.3,9.7-9.5,9.7h-63.5c-5.3,0-9.5-4.3-9.5-9.7V16.1c0-5.3,4.3-9.7,9.5-9.7h63.5
	c5.3,0,9.5,4.3,9.5,9.7V80.6z M175.2,63.1c1.2,1.3,1.2,3.3,0,4.6c-0.6,0.6-1.4,0.9-2.2,0.9s-1.6-0.3-2.2-0.9l-18-18.3l-18,18.3
	c-0.6,0.6-1.4,0.9-2.2,0.9s-1.6-0.3-2.2-0.9c-1.2-1.3-1.2-3.3,0-4.6l18-18.2l-15.7-16c-1.2-1.3-1.2-3.3,0-4.6c1.2-1.3,3.2-1.3,4.5,0
	l15.7,16l15.7-16c1.2-1.3,3.2-1.3,4.5,0c1.2,1.3,1.2,3.3,0,4.6l-15.7,16L175.2,63.1z M79.4,103.2H15.9c-8.8,0-15.9,7.2-15.9,16.1
	v64.5c0,8.9,7.1,16.1,15.9,16.1h63.5c8.8,0,15.9-7.2,15.9-16.1v-64.5C95.2,110.5,88.1,103.2,79.4,103.2z M88.9,183.9
	c0,5.3-4.3,9.7-9.5,9.7H15.9c-5.3,0-9.5-4.3-9.5-9.7v-64.5c0-5.3,4.3-9.7,9.5-9.7l0,0h63.5c5.3,0,9.5,4.3,9.5,9.7V183.9z
	 M79.4,141.9c0,1.8-1.4,3.2-3.2,3.2h-54c-1.8,0-3.2-1.4-3.2-3.2s1.4-3.2,3.2-3.2h54C77.9,138.7,79.4,140.2,79.4,141.9z M181,151.6
	c0,1.8-1.4,3.2-3.2,3.2h-54c-1.8,0-3.2-1.4-3.2-3.2s1.4-3.2,3.2-3.2h54C179.5,148.4,181,149.8,181,151.6z M79.4,164.5
	c0,1.8-1.4,3.2-3.2,3.2h-54c-1.8,0-3.2-1.4-3.2-3.2s1.4-3.2,3.2-3.2h54C77.9,161.3,79.4,162.7,79.4,164.5z M184.1,103.2h-63.5
	c-8.8,0-15.9,7.2-15.9,16.1v64.5c0,8.9,7.1,16.1,15.9,16.1h63.5c8.8,0,15.9-7.2,15.9-16.1v-64.5C200,110.5,192.9,103.2,184.1,103.2z
	 M193.7,183.9c0,5.3-4.3,9.7-9.5,9.7h-63.5c-5.3,0-9.5-4.3-9.5-9.7v-64.5c0-5.3,4.3-9.7,9.5-9.7l0,0h63.5c5.3,0,9.5,4.3,9.5,9.7
	V183.9z"/>
</svg>
