<?xml version="1.0" encoding="utf-8"?>
<!-- Generator: Adobe Illustrator 22.0.1, SVG Export Plug-In . SVG Version: 6.00 Build 0)  -->
<svg version="1.1" id="Layer_1" xmlns="http://www.w3.org/2000/svg" xmlns:xlink="http://www.w3.org/1999/xlink" x="0px" y="0px"
	 viewBox="0 0 200 64" style="enable-background:new 0 0 200 64;" xml:space="preserve">
<style type="text/css">
	.st0{fill:#0169B8;}
	.st1{fill:#0CAEEF;}
</style>
<path class="st0" d="M26.6,0l27.8,22.5v5L26.6,11.9V0z M26.6,16.1V64l4.1-1.9V22.9l17.1,7.9v31.1l3,2.1V28.7L26.6,16.1z M45.7,43.8
	h-2.3V46h2.3V43.8z M69.7,23.2h2.3l3.5,9.9h-2.2l-0.7-2H69l-0.7,2h-2.2L69.7,23.2z M69.6,29.3h2.5l-1.2-3.9L69.6,29.3z M76.8,23.2
	h2.1v8.1h4.9v1.8h-7V23.2z M85.2,23.2h2.1v6.1c0,0.7,0.1,1.2,0.2,1.5c0.2,0.6,0.8,0.8,1.6,0.8c0.8,0,1.4-0.3,1.6-0.8
	c0.2-0.3,0.2-0.8,0.2-1.5v-6.1h2.1v6.1c0,1.1-0.2,1.9-0.5,2.5c-0.6,1.1-1.8,1.6-3.5,1.6s-2.9-0.5-3.5-1.6c-0.3-0.6-0.5-1.4-0.5-2.5
	V23.2z M102.3,23.2v1.8h-3v8.2h-2.1v-8.2h-3v-1.8H102.3z M110.8,24.9h-5.2V27h4.8v1.7h-4.8v2.6h5.5v1.8h-7.5v-9.9h7.3V24.9z
	 M113.6,24.2c0.8-0.8,1.8-1.2,3-1.2c1.6,0,2.8,0.5,3.6,1.6c0.4,0.6,0.6,1.2,0.7,1.9h-2.1c-0.1-0.5-0.3-0.8-0.5-1.1
	c-0.4-0.4-0.9-0.6-1.6-0.6c-0.7,0-1.3,0.3-1.7,0.9c-0.4,0.6-0.6,1.5-0.6,2.6s0.2,1.9,0.7,2.5c0.4,0.6,1,0.8,1.7,0.8
	c0.7,0,1.2-0.2,1.6-0.7c0.2-0.3,0.4-0.6,0.5-1.2h2.1c-0.2,1.1-0.6,2-1.4,2.6c-0.7,0.7-1.7,1-2.8,1c-1.4,0-2.5-0.5-3.3-1.4
	c-0.8-0.9-1.2-2.2-1.2-3.8C112.3,26.5,112.7,25.1,113.6,24.2z M122.6,33.1v-9.9h2.1V27h3.8v-3.8h2.1v9.9h-2.1v-4.4h-3.8v4.4H122.6z
	 M143,26.3c-0.2-0.7-0.5-1.2-1.1-1.4c-0.3-0.1-0.7-0.2-1.1-0.2c-0.8,0-1.5,0.3-2,0.9c-0.5,0.6-0.8,1.5-0.8,2.7
	c0,1.2,0.3,2.1,0.8,2.6c0.6,0.5,1.2,0.8,1.9,0.8c0.7,0,1.3-0.2,1.7-0.6c0.4-0.4,0.7-0.9,0.8-1.6H141v-1.7h4.1v5.3h-1.4l-0.2-1.2
	c-0.4,0.5-0.8,0.8-1.1,1c-0.5,0.3-1.2,0.5-2,0.5c-1.3,0-2.4-0.5-3.2-1.4c-0.9-0.9-1.3-2.2-1.3-3.8c0-1.6,0.4-2.9,1.3-3.9
	c0.9-1,2-1.5,3.5-1.5c1.3,0,2.3,0.3,3,1c0.8,0.6,1.2,1.4,1.3,2.4H143z M154.4,24.9h-5.2V27h4.8v1.7h-4.8v2.6h5.5v1.8h-7.5v-9.9h7.3
	V24.9z M163.8,32.2c-0.7,0.8-1.8,1.2-3.2,1.2s-2.5-0.4-3.2-1.2c-1-0.9-1.5-2.3-1.5-4.1c0-1.8,0.5-3.2,1.5-4.1
	c0.7-0.8,1.8-1.2,3.2-1.2s2.5,0.4,3.2,1.2c1,0.9,1.5,2.3,1.5,4.1C165.3,29.9,164.8,31.3,163.8,32.2z M162.5,30.7
	c0.5-0.6,0.7-1.5,0.7-2.6c0-1.1-0.2-2-0.7-2.6c-0.5-0.6-1.1-0.9-1.9-0.9c-0.8,0-1.5,0.3-2,0.9c-0.5,0.6-0.7,1.5-0.7,2.6
	s0.2,2,0.7,2.6c0.5,0.6,1.1,0.9,2,0.9C161.4,31.6,162.1,31.3,162.5,30.7z M173.2,23.4c0.4,0.2,0.7,0.4,0.9,0.7
	c0.2,0.3,0.4,0.5,0.5,0.8c0.1,0.3,0.2,0.7,0.2,1c0,0.5-0.1,0.9-0.4,1.4c-0.2,0.5-0.6,0.8-1.2,1c0.5,0.2,0.8,0.4,1,0.8
	c0.2,0.3,0.3,0.9,0.3,1.6v0.7c0,0.5,0,0.8,0.1,0.9c0.1,0.3,0.2,0.4,0.4,0.6v0.2h-2.3c-0.1-0.2-0.1-0.4-0.1-0.5
	c-0.1-0.3-0.1-0.6-0.1-0.9l0-0.9c0-0.6-0.1-1.1-0.3-1.3c-0.2-0.2-0.6-0.3-1.2-0.3h-2v3.9h-2v-9.9h4.7
	C172.4,23.2,172.9,23.3,173.2,23.4z M169,24.9v2.7h2.2c0.4,0,0.8-0.1,1-0.2c0.4-0.2,0.6-0.6,0.6-1.1c0-0.6-0.2-1-0.6-1.2
	c-0.2-0.1-0.5-0.2-1-0.2H169z M183.5,26.3c-0.2-0.7-0.5-1.2-1.1-1.4c-0.3-0.1-0.7-0.2-1.1-0.2c-0.8,0-1.5,0.3-2,0.9
	c-0.5,0.6-0.8,1.5-0.8,2.7c0,1.2,0.3,2.1,0.8,2.6c0.6,0.5,1.2,0.8,1.9,0.8c0.7,0,1.3-0.2,1.7-0.6c0.4-0.4,0.7-0.9,0.8-1.6h-2.3v-1.7
	h4.1v5.3h-1.4l-0.2-1.2c-0.4,0.5-0.8,0.8-1.1,1c-0.5,0.3-1.2,0.5-2,0.5c-1.3,0-2.4-0.5-3.2-1.4c-0.9-0.9-1.3-2.2-1.3-3.8
	c0-1.6,0.4-2.9,1.3-3.9c0.9-1,2-1.5,3.5-1.5c1.3,0,2.3,0.3,3,1c0.8,0.6,1.2,1.4,1.3,2.4H183.5z M189.4,33.1h-2.1v-9.9h2.1V33.1z
	 M194.2,23.2h2.3l3.5,9.9h-2.2l-0.7-2h-3.6l-0.7,2h-2.2L194.2,23.2z M194,29.3h2.5l-1.2-3.9L194,29.3z"/>
<path class="st1" d="M26.6,11.9L0,27.5v-5.9L26.6,0V11.9z M26.6,16.1V64L4.4,52.8V27.5L26.6,16.1z M13.3,41H8.4v10.4l4.9,1.6V41z
	 M13.3,27.5l-4.9,1.8v10h4.9V27.5z M22.6,41H15v12.9l7.5,1.9V41z M22.6,23.7L15,26.1v13.2h7.5V23.7z M67.8,39.2l1.1,4.7l0.2,1.3
	l0.2-1.3l0.9-4.7h1.8l1,4.7l0.2,1.3l0.3-1.3l1.1-4.8h1.7l-2.3,8.2h-1.6l-1-4.8L71.2,41l-0.3,1.6l-1,4.8h-1.6L66,39.2H67.8z
	 M78.9,40.6h-1.6v-1.5h1.6V40.6z M77.3,41.4h1.6v6.1h-1.6V41.4z M85.3,41.7c0.4,0.3,0.6,0.9,0.6,1.6v4.1h-1.6v-3.7
	c0-0.3,0-0.6-0.1-0.7c-0.2-0.3-0.4-0.5-0.9-0.5c-0.5,0-0.9,0.2-1.1,0.7C82,43.5,82,43.8,82,44.1v3.3h-1.6v-6.1h1.5v0.9
	c0.2-0.3,0.4-0.5,0.6-0.7c0.3-0.2,0.7-0.4,1.2-0.4C84.4,41.2,84.9,41.4,85.3,41.7z M90.6,41.5c0.3,0.2,0.5,0.4,0.7,0.7v-2.9h1.6v8.2
	h-1.5v-0.8c-0.2,0.4-0.5,0.6-0.8,0.8c-0.3,0.2-0.6,0.2-1.1,0.2c-0.7,0-1.3-0.3-1.8-0.9c-0.5-0.6-0.7-1.3-0.7-2.2
	c0-1,0.2-1.9,0.7-2.5c0.5-0.6,1.1-0.9,1.9-0.9C90,41.2,90.3,41.3,90.6,41.5z M91,45.8c0.2-0.3,0.4-0.8,0.4-1.3
	c0-0.7-0.2-1.3-0.6-1.6c-0.2-0.2-0.5-0.3-0.8-0.3c-0.5,0-0.8,0.2-1,0.5c-0.2,0.4-0.3,0.8-0.3,1.3c0,0.6,0.1,1,0.3,1.3s0.6,0.5,1,0.5
	C90.4,46.3,90.7,46.1,91,45.8z M99.4,46.7c-0.5,0.6-1.3,1-2.3,1c-1,0-1.8-0.3-2.3-1c-0.5-0.6-0.8-1.4-0.8-2.3c0-0.9,0.3-1.6,0.8-2.3
	c0.5-0.6,1.3-1,2.3-1c1,0,1.8,0.3,2.3,1c0.5,0.6,0.8,1.4,0.8,2.3C100.1,45.3,99.9,46.1,99.4,46.7z M98.1,45.8
	c0.2-0.3,0.4-0.8,0.4-1.4c0-0.6-0.1-1.1-0.4-1.4c-0.2-0.3-0.6-0.5-1.1-0.5c-0.5,0-0.8,0.2-1.1,0.5c-0.3,0.3-0.4,0.8-0.4,1.4
	c0,0.6,0.1,1.1,0.4,1.4c0.3,0.3,0.6,0.5,1.1,0.5C97.5,46.3,97.8,46.1,98.1,45.8z M104.1,41.4h1.6l0.9,4.4l0.9-4.4h1.7l-1.8,6.1h-1.6
	l-1-4.4l-1,4.4h-1.6l-1.7-6.1h1.7l0.9,4.4L104.1,41.4z M111.3,45.5c0,0.3,0.1,0.5,0.2,0.6c0.2,0.2,0.6,0.3,1.1,0.3
	c0.3,0,0.6,0,0.7-0.1c0.2-0.1,0.3-0.2,0.3-0.4c0-0.2-0.1-0.3-0.2-0.4c-0.1-0.1-0.7-0.3-1.7-0.5c-0.7-0.2-1.2-0.4-1.5-0.6
	c-0.3-0.3-0.4-0.6-0.4-1.1c0-0.6,0.2-1,0.7-1.4c0.4-0.4,1.1-0.6,1.9-0.6c0.8,0,1.4,0.2,1.9,0.5c0.5,0.3,0.8,0.8,0.8,1.6h-1.6
	c0-0.2-0.1-0.4-0.2-0.5c-0.2-0.2-0.5-0.3-0.9-0.3c-0.3,0-0.6,0.1-0.7,0.2c-0.1,0.1-0.2,0.2-0.2,0.4c0,0.2,0.1,0.3,0.2,0.4
	c0.2,0.1,0.7,0.2,1.7,0.4c0.6,0.1,1.1,0.4,1.4,0.7c0.3,0.3,0.5,0.7,0.5,1.1c0,0.6-0.2,1.1-0.7,1.5c-0.4,0.4-1.1,0.6-2.1,0.6
	c-1,0-1.7-0.2-2.1-0.6c-0.5-0.4-0.7-0.9-0.7-1.5H111.3z M124.7,46.7c-0.5,0.6-1.3,1-2.3,1c-1,0-1.8-0.3-2.3-1
	c-0.5-0.6-0.8-1.4-0.8-2.3c0-0.9,0.3-1.6,0.8-2.3c0.5-0.6,1.3-1,2.3-1c1,0,1.8,0.3,2.3,1c0.5,0.6,0.8,1.4,0.8,2.3
	C125.4,45.3,125.2,46.1,124.7,46.7z M123.4,45.8c0.2-0.3,0.4-0.8,0.4-1.4c0-0.6-0.1-1.1-0.4-1.4c-0.2-0.3-0.6-0.5-1.1-0.5
	c-0.5,0-0.8,0.2-1.1,0.5c-0.3,0.3-0.4,0.8-0.4,1.4c0,0.6,0.1,1.1,0.4,1.4c0.3,0.3,0.6,0.5,1.1,0.5C122.8,46.3,123.2,46.1,123.4,45.8
	z M129.1,39.1c0.1,0,0.2,0,0.3,0v1.3c-0.1,0-0.2,0-0.4,0c-0.2,0-0.4,0-0.4,0.1c-0.1,0.1-0.1,0.2-0.1,0.3c0,0.1,0,0.3,0,0.5h1v1.1h-1
	v4.9h-1.6v-4.9h-0.9v-1.1h0.9V41c0-0.7,0.1-1.1,0.3-1.3c0.2-0.4,0.8-0.5,1.7-0.5C128.9,39.1,129,39.1,129.1,39.1z M132.9,42.5v-1.1
	h0.8v-1.7h1.6v1.7h1v1.1h-1v3.2c0,0.2,0,0.4,0.1,0.5c0.1,0.1,0.3,0.1,0.6,0.1c0,0,0.1,0,0.2,0c0.1,0,0.1,0,0.2,0v1.2l-0.7,0
	c-0.7,0-1.3-0.1-1.5-0.4c-0.2-0.2-0.3-0.5-0.3-0.8v-3.7H132.9z M141.7,41.4c0.3,0.1,0.6,0.3,0.8,0.6c0.2,0.2,0.3,0.5,0.3,0.7
	c0,0.2,0.1,0.6,0.1,1.2v3.6h-1.6v-3.7c0-0.3-0.1-0.6-0.2-0.8c-0.1-0.3-0.4-0.4-0.8-0.4c-0.4,0-0.7,0.1-0.9,0.4
	c-0.2,0.3-0.3,0.7-0.3,1.2v3.3h-1.6v-8.2h1.6v2.9c0.2-0.4,0.5-0.6,0.8-0.7c0.3-0.1,0.6-0.2,0.9-0.2C141,41.2,141.4,41.3,141.7,41.4z
	 M148.2,41.5c0.4,0.2,0.8,0.5,1,0.9c0.2,0.4,0.4,0.8,0.5,1.3c0,0.3,0.1,0.7,0.1,1.2h-4.4c0,0.6,0.2,1,0.6,1.3
	c0.2,0.2,0.5,0.2,0.9,0.2c0.4,0,0.7-0.1,0.9-0.3c0.1-0.1,0.2-0.2,0.3-0.4h1.6c0,0.4-0.2,0.7-0.6,1.1c-0.5,0.6-1.3,0.9-2.3,0.9
	c-0.8,0-1.5-0.2-2.1-0.7c-0.6-0.5-0.9-1.3-0.9-2.4c0-1.1,0.3-1.9,0.8-2.4c0.6-0.6,1.3-0.8,2.2-0.8C147.3,41.2,147.8,41.3,148.2,41.5
	z M145.8,42.9c-0.2,0.2-0.4,0.5-0.4,0.9h2.7c0-0.4-0.2-0.7-0.4-1c-0.3-0.2-0.6-0.3-0.9-0.3C146.4,42.5,146.1,42.6,145.8,42.9z
	 M153.9,39.2h5.8v1.4h-4.1v1.9h3.6V44h-3.6v3.5h-1.7V39.2z M162.3,41.4V45c0,0.3,0,0.6,0.1,0.8c0.1,0.3,0.4,0.5,0.8,0.5
	c0.5,0,0.9-0.2,1.1-0.7c0.1-0.2,0.2-0.6,0.2-0.9v-3.3h1.6v6.1h-1.5v-0.9c0,0-0.1,0.1-0.1,0.2c-0.1,0.1-0.1,0.2-0.2,0.2
	c-0.2,0.2-0.5,0.4-0.7,0.5c-0.2,0.1-0.5,0.1-0.8,0.1c-0.9,0-1.5-0.3-1.8-1c-0.2-0.4-0.3-0.9-0.3-1.6v-3.7H162.3z M167,42.5v-1.1h0.8
	v-1.7h1.6v1.7h1v1.1h-1v3.2c0,0.2,0,0.4,0.1,0.5c0.1,0.1,0.3,0.1,0.6,0.1c0,0,0.1,0,0.2,0c0.1,0,0.1,0,0.2,0v1.2l-0.7,0
	c-0.7,0-1.3-0.1-1.5-0.4c-0.2-0.2-0.3-0.5-0.3-0.8v-3.7H167z M173,41.4V45c0,0.3,0,0.6,0.1,0.8c0.1,0.3,0.4,0.5,0.8,0.5
	c0.5,0,0.9-0.2,1.1-0.7c0.1-0.2,0.2-0.6,0.2-0.9v-3.3h1.6v6.1h-1.5v-0.9c0,0-0.1,0.1-0.1,0.2c-0.1,0.1-0.1,0.2-0.2,0.2
	c-0.2,0.2-0.5,0.4-0.7,0.5c-0.2,0.1-0.5,0.1-0.8,0.1c-0.9,0-1.5-0.3-1.8-1c-0.2-0.4-0.3-0.9-0.3-1.6v-3.7H173z M181.8,41.2
	c0,0,0.1,0,0.1,0v1.6c-0.1,0-0.2,0-0.3,0c-0.1,0-0.1,0-0.2,0c-0.6,0-1.1,0.2-1.3,0.6c-0.1,0.2-0.2,0.6-0.2,1.1v2.9h-1.6v-6.1h1.5
	v1.1c0.2-0.4,0.5-0.7,0.6-0.8C180.8,41.3,181.2,41.2,181.8,41.2C181.7,41.2,181.8,41.2,181.8,41.2z M186.8,41.5
	c0.4,0.2,0.8,0.5,1,0.9c0.2,0.4,0.4,0.8,0.5,1.3c0,0.3,0.1,0.7,0.1,1.2H184c0,0.6,0.2,1,0.6,1.3c0.2,0.2,0.5,0.2,0.9,0.2
	c0.4,0,0.7-0.1,0.9-0.3c0.1-0.1,0.2-0.2,0.3-0.4h1.6c0,0.4-0.2,0.7-0.6,1.1c-0.5,0.6-1.3,0.9-2.3,0.9c-0.8,0-1.5-0.2-2.1-0.7
	c-0.6-0.5-0.9-1.3-0.9-2.4c0-1.1,0.3-1.9,0.8-2.4c0.6-0.6,1.3-0.8,2.2-0.8C185.9,41.2,186.4,41.3,186.8,41.5z M184.4,42.9
	c-0.2,0.2-0.4,0.5-0.4,0.9h2.7c0-0.4-0.2-0.7-0.4-1c-0.3-0.2-0.6-0.3-0.9-0.3C185,42.5,184.6,42.6,184.4,42.9z"/>
</svg>
