<?xml version="1.0" encoding="utf-8"?>
<!-- Generator: Adobe Illustrator 22.0.1, SVG Export Plug-In . SVG Version: 6.00 Build 0)  -->
<svg version="1.1" id="Font" xmlns="http://www.w3.org/2000/svg" xmlns:xlink="http://www.w3.org/1999/xlink" x="0px" y="0px"
	 viewBox="0 0 200 200" style="enable-background:new 0 0 200 200;" xml:space="preserve">
<style type="text/css">
	.st0{fill:#1978BE;}
</style>
<path class="st0" d="M158.1,123.8c-4.1-4.4-9.1-6.6-14.4-6.6c-5.3,0-10.3,2.2-14.4,6.6l-13.4,13.4c-1.3-0.6-2.2-1.2-3.1-1.6
	c-1.6-0.6-2.8-1.6-4.1-2.2c-12.5-7.8-23.8-18.1-34.7-31.5c-5.3-6.6-8.8-12.2-11.6-18.1c3.4-3.1,6.6-6.6,9.7-9.7
	c1.3-1.2,2.5-2.5,3.4-3.4c8.8-8.7,8.8-20.3,0-29L63.9,30.1c-1.3-1.2-2.8-2.8-4.1-4.1c-2.5-2.5-5.3-5.3-7.8-7.8c-4-4-9-6.2-14-6.2
	s-10,1.9-14.4,5.9l0,0L9.2,32.3c-5.3,5.3-8.4,11.8-9,19.7c-0.9,12.2,2.5,23.7,5.3,31.2c6.9,18.7,17.2,35.6,32.2,54
	c18.4,22.2,41,39.4,66.3,51.8c9.7,4.7,22.8,10,37.2,10.9c0.9,0,1.9,0,2.8,0c9.7,0,17.8-3.4,24.4-10.3c0,0,0,0,0.3-0.3
	c2.2-2.8,4.7-5,7.5-7.5c1.9-1.9,3.8-3.4,5.6-5.3c4.1-4.4,6.3-9.4,6.3-14.7s-2.2-10.3-6.6-14.4L158.1,123.8z M173.1,168.5
	L173.1,168.5c-1.6,1.9-3.4,3.4-5.3,5c-2.8,2.5-5.6,5.3-8.1,8.4c-4.4,4.7-9.4,6.6-15.9,6.6c-0.6,0-1.3,0-1.9,0
	c-12.5-0.9-24.4-5.6-33.1-10c-24.1-11.6-45-28.1-62.5-48.7c-14.1-17.2-23.5-33.1-30-50.3C12.2,68.9,11,60.8,11.6,53
	c0.3-5,2.2-9.1,5.9-12.5L31.7,26c2.2-1.9,4.4-3.1,6.6-3.1c2.8,0,4.7,1.6,6.3,2.8l0,0c2.5,2.5,5,5,7.5,7.5c1.3,1.2,2.8,2.8,4.1,4.1
	l11.6,11.6c4.4,4.4,4.4,8.7,0,13.1c-1.3,1.2-2.5,2.5-3.8,3.7c-3.4,3.7-6.9,6.9-10.6,10.3c0,0-0.3,0-0.3,0.3
	c-3.8,3.7-2.8,7.2-2.2,9.7v0.3c3.1,7.2,7.2,14.1,13.8,22.2l0,0c11.6,14.4,24.1,25.6,37.5,34c1.9,1.2,3.4,1.9,5.3,2.8
	c1.6,0.6,2.8,1.6,4.1,2.2c0.3,0,0.3,0.3,0.6,0.3c1.6,0.6,2.8,0.9,4.1,0.9c3.4,0,5.6-2.2,6.6-2.8l14.4-14.4c1.6-1.6,3.8-3.1,6.3-3.1
	s4.7,1.6,5.9,3.1l0,0l23.5,23.1C177.5,159.4,177.5,163.8,173.1,168.5z M108,47.6c10.9,1.9,21.3,7.2,29.1,15s13.1,18.1,15,29
	c0.3,2.8,2.8,4.7,5.6,4.7c0.3,0,0.6,0,0.9,0c3.1-0.6,5.3-3.4,4.7-6.6c-2.2-13.4-8.8-25.6-18.4-35.3S123,38.5,109.6,36.3
	c-3.1-0.6-5.9,1.6-6.6,4.7C102.7,44.1,104.9,47.3,108,47.6z M200,88.2C196.2,66,185.9,46,170,30.1s-36.3-26.2-58.5-30
	c-3.1-0.6-5.9,1.6-6.6,4.7c-0.6,3.1,1.6,5.9,4.7,6.6c19.7,3.4,37.8,12.8,51.9,26.9c14.4,14.4,23.5,32.2,26.9,51.8
	c0.3,2.8,2.8,4.7,5.6,4.7c0.3,0,0.6,0,0.9,0C198.4,94.4,200.3,91.3,200,88.2z"/>
</svg>
