<?xml version="1.0" encoding="utf-8"?>
<!-- Generator: Adobe Illustrator 22.1.0, SVG Export Plug-In . SVG Version: 6.00 Build 0)  -->
<svg version="1.1" id="Layer_1" xmlns="http://www.w3.org/2000/svg" xmlns:xlink="http://www.w3.org/1999/xlink" x="0px" y="0px"
	 viewBox="0 0 544 34" style="enable-background:new 0 0 544 34;" xml:space="preserve">
<style type="text/css">
	.st0{fill:#12476E;}
	.st1{fill:#FFFFFF;}
</style>
<g transform="matrix( 1, 0, 0, 1, 25.15,25.25) ">
	<g transform="matrix( 1, 0, 0, 1, -23.45,16.4) ">
		<g transform="matrix( 1.3848419189453125, 0, 0, 1, 3.4,11.55) ">
			<g>
				<g id="Symbol_1_0_Layer0_0_FILL">
					<path class="st0" d="M20.2-23.7c0-0.7-0.4-1.1-1.1-1.1h-21c-0.7,0-1.1,0.4-1.1,1.1v1.4c0,0.7,0.4,1.1,1.1,1.1h21.1
						c0.7,0,1.1-0.4,1.1-1.1C20.2-22.3,20.2-23.7,20.2-23.7z"/>
				</g>
			</g>
		</g>
	</g>
	<g transform="matrix( 1, 0, 0, 1, -23.45,-2.55) ">
		<g transform="matrix( 1.3848419189453125, 0, 0, 1, 3.4,11.55) ">
			<g>
				<g id="Symbol_1_0_Layer0_0_FILL_1_">
					<path class="st0" d="M20.2-17.7c0-0.7-0.4-1.1-1.1-1.1h-21c-0.7,0-1.1,0.4-1.1,1.1v1.4c0,0.7,0.4,1.1,1.1,1.1h21.1
						c0.7,0,1.1-0.4,1.1-1.1C20.2-16.3,20.2-17.7,20.2-17.7z"/>
				</g>
			</g>
		</g>
	</g>
	<g transform="matrix( 1, 0, 0, 1, -23.45,-22) ">
		<g transform="matrix( 1.3848419189453125, 0, 0, 1, 3.4,11.55) ">
			<g>
				<g id="Symbol_1_0_Layer0_0_FILL_2_">
					<path class="st0" d="M20.2-11.7c0-0.7-0.4-1.1-1.1-1.1h-21c-0.7,0-1.1,0.4-1.1,1.1v1.4c0,0.7,0.4,1.1,1.1,1.1h21.1
						c0.7,0,1.1-0.4,1.1-1.1C20.2-10.3,20.2-11.7,20.2-11.7z"/>
				</g>
			</g>
		</g>
	</g>
</g>
<path class="st0" d="M135.1,14.3v-1.4c0-0.7-0.4-1.1-1.4-1.1h-29.3c-1,0-1.4,0.4-1.4,1.1v1.4c0,0.6,0.4,1,1.1,1.1
	c-0.7,0.1-1.1,0.4-1.1,1.1v1.4c0,0.5,0.4,0.9,1,1c-0.6,0.1-1,0.4-1,1v1.4c0,0.7,0.4,1.1,1.4,1.1h29.3c1,0,1.4-0.4,1.4-1.1v-1.4
	c0-0.5-0.4-0.9-1-1c0.6-0.1,1-0.4,1-1v-1.4c0-0.6-0.4-1-1.1-1.1C134.7,15.2,135.1,14.9,135.1,14.3z"/>
<path class="st0" d="M169,14.7c0-0.7-0.4-1.1-1.4-1.1h-29.2c-1,0-1.4,0.4-1.4,1.1v1.4v0.1v0.1v1.4v0.1v0.1v1.4
	c0,0.7,0.4,1.1,1.4,1.1h29.2c1,0,1.4-0.4,1.4-1.1V18v-0.1v-0.1v-1.4v-0.1v-0.1V14.7L169,14.7z"/>
<path class="st0" d="M201.6,14.8h-29.2c-1,0-1.4,0.4-1.4,1.1v0.4v0.4v0.4v0.4v0.4c0,0.7,0.4,1.1,1.4,1.1h29.2c1,0,1.4-0.4,1.4-1.1
	v-0.4v-0.4v-0.4v-0.4v-0.4C203,15.2,202.6,14.8,201.6,14.8z"/>
<path class="st0" d="M235.6,15.2h-29.3c-1,0-1.4,0.4-1.4,1.1v1.4c0,0.7,0.4,1.1,1.4,1.1h29.3c1,0,1.4-0.4,1.4-1.1v-1.4
	C237.1,15.6,236.6,15.2,235.6,15.2z"/>
<path class="st0" d="M269.6,15.2h-29.3c-1,0-1.4,0.4-1.4,1.1v1.4c0,0.7,0.4,1.1,1.4,1.1h29.3c1,0,1.4-0.4,1.4-1.1v-1.4
	C271.1,15.6,270.6,15.2,269.6,15.2z"/>
<path class="st1" d="M303.6,15.2h-29.2c-1,0-1.4,0.4-1.4,1.1v1.4c0,0.7,0.4,1.1,1.4,1.1h29.2c1,0,1.4-0.4,1.4-1.1v-1.4
	C305,15.6,304.5,15.2,303.6,15.2z"/>
<path class="st1" d="M337.6,15.2h-29.2c-1,0-1.4,0.4-1.4,1.1v1.4c0,0.7,0.4,1.1,1.4,1.1h29.2c1,0,1.4-0.4,1.4-1.1v-1.4
	C339,15.6,338.6,15.2,337.6,15.2z"/>
<path class="st1" d="M371.7,18.7l-7.1-1.7l6.8-1.7c1-0.3,1.3-0.7,1.1-1.3l-0.4-1.4c-0.2-0.7-0.7-0.9-1.7-0.7L357,15.2l-13.8-3.4
	c-1-0.3-1.5,0-1.7,0.7l-0.4,1.4c-0.2,0.7,0.3,1.1,1.1,1.3l7.1,1.8l-7.4,1.8c-1,0.3-1.3,0.7-1.1,1.3l0.4,1.4c0.2,0.7,0.7,0.9,1.7,0.7
	l14.1-3.4l13.8,3.4c1,0.3,1.5,0,1.7-0.7L373,20C373,19.3,372.6,18.9,371.7,18.7z"/>
<path class="st1" d="M405.3,21.5l-10-4.6l9.4-4.4c0.9-0.4,1.1-0.9,0.9-1.5L405,9.7c-0.3-0.6-0.9-0.7-1.8-0.4L391.1,15l-12.4-5.7
	c-0.9-0.4-1.4-0.3-1.8,0.4l-0.6,1.3c-0.3,0.6,0,1.1,0.9,1.5l9.6,4.4l-10.1,4.7c-0.9,0.4-1.1,0.9-0.9,1.5l0.6,1.3
	c0.3,0.6,0.9,0.7,1.8,0.4l12.9-5.9l12.7,5.9c0.9,0.4,1.4,0.3,1.8-0.4l0.6-1.3C406.4,22.4,406.1,21.9,405.3,21.5z"/>
<path class="st1" d="M438.5,23.5l-10.3-6.9l9.5-6.4c0.8-0.5,1-1.1,0.6-1.7l-0.8-1.2c-0.4-0.5-1-0.6-1.8-0.1L425,14.5l-10.9-7.1
	c-0.8-0.5-1.4-0.5-1.8,0.1l-0.8,1.2c-0.4,0.5-0.2,1.1,0.6,1.7l9.6,6.4l-10.4,7c-0.8,0.5-1,1.1-0.6,1.7l0.8,1.2
	c0.4,0.5,1,0.6,1.8,0.1l11.6-7.8l11.6,7.7c0.8,0.5,1.4,0.5,1.8-0.1l0.8-1.2C439.5,24.6,439.3,24.1,438.5,23.5z"/>
<path class="st1" d="M471.8,24.9l-10-8.3l9.1-7.6c0.7-0.6,0.9-1.1,0.4-1.7l-1-1.1c-0.4-0.5-1.1-0.5-1.8,0.1l-9.5,8l-9.7-8.1
	c-0.7-0.6-1.3-0.6-1.8-0.1l-1,1.1c-0.4,0.5-0.3,1.1,0.4,1.7l9.2,7.7l-9.9,8.4c-0.7,0.6-0.9,1.1-0.4,1.7l1,1.1
	c0.4,0.5,1.1,0.5,1.8-0.1l10.5-8.8l10.5,8.7c0.7,0.6,1.3,0.6,1.8,0.1l1-1.1C472.7,26.2,472.6,25.6,471.8,24.9z"/>
<path class="st1" d="M505.2,25.8l-9.7-9.3l8.7-8.4c0.7-0.6,0.8-1.2,0.4-1.8l-1-1.1c-0.4-0.5-1.1-0.4-1.8,0.3l-8.9,8.5L484,5.6
	c-0.7-0.6-1.2-0.7-1.8-0.3l-0.9,1.1c-0.4,0.5-0.4,1.1,0.4,1.8l8.8,8.4l-9.7,9.3c-0.7,0.6-0.8,1.2-0.4,1.8l1,1.1
	c0.4,0.5,1.1,0.4,1.8-0.3l9.8-9.4l9.8,9.4c0.7,0.6,1.2,0.7,1.8,0.3l1-1.1C506,27,505.9,26.6,505.2,25.8z"/>
<path class="st1" d="M539.1,26l-9.5-9.5l8.6-8.6c0.7-0.7,0.8-1.2,0.3-1.8L537.4,5c-0.5-0.5-1.1-0.4-1.8,0.3l-8.6,8.6l-8.6-8.6
	c-0.7-0.7-1.2-0.8-1.8-0.3l-1,1.1c-0.5,0.5-0.4,1.1,0.3,1.8l8.6,8.6l-9.6,9.6c-0.7,0.7-0.8,1.2-0.3,1.8l1.1,1.1
	c0.5,0.5,1.1,0.4,1.8-0.3l9.6-9.7l9.5,9.5c0.7,0.7,1.2,0.8,1.8,0.3l1.1-1.1C539.8,27.3,539.7,26.7,539.1,26z"/>
<g transform="matrix( 1, 0, 0, 1, 25.15,25.25) ">
	<g transform="matrix( 1, 0, 0, 1, -23.45,10.75) ">
		<g transform="matrix( 1.3848419189453125, 0, 0, 1, 3.4,11.55) ">
			<g>
				<g id="Symbol_1_0_Layer0_0_FILL_44_">
					<path class="st0" d="M44.7-22c0-0.7-0.4-1.1-1.1-1.1h-21c-0.7,0-1.1,0.4-1.1,1.1v1.4c0,0.7,0.4,1.1,1.1,1.1h21.1
						c0.7,0,1.1-0.4,1.1-1.1L44.7-22L44.7-22z"/>
				</g>
			</g>
		</g>
	</g>
	<g transform="matrix( 1, 0, 0, 1, -23.45,-2.55) ">
		<g transform="matrix( 1.3848419189453125, 0, 0, 1, 3.4,11.55) ">
			<g>
				<g id="Symbol_1_0_Layer0_0_FILL_43_">
					<path class="st0" d="M44.7-17.9c0-0.7-0.4-1.1-1.1-1.1h-21c-0.7,0-1.1,0.4-1.1,1.1v1.4c0,0.7,0.4,1.1,1.1,1.1h21.1
						c0.7,0,1.1-0.4,1.1-1.1L44.7-17.9L44.7-17.9z"/>
				</g>
			</g>
		</g>
	</g>
	<g transform="matrix( 1, 0, 0, 1, -23.45,-16.2) ">
		<g transform="matrix( 1.3848419189453125, 0, 0, 1, 3.4,11.55) ">
			<g>
				<g id="Symbol_1_0_Layer0_0_FILL_42_">
					<path class="st0" d="M44.7-13.6c0-0.7-0.4-1.1-1.1-1.1h-21c-0.7,0-1.1,0.4-1.1,1.1v1.4c0,0.7,0.4,1.1,1.1,1.1h21.1
						c0.7,0,1.1-0.4,1.1-1.1L44.7-13.6L44.7-13.6z"/>
				</g>
			</g>
		</g>
	</g>
</g>
<g transform="matrix( 1, 0, 0, 1, 25.15,25.25) ">
	<g transform="matrix( 1, 0, 0, 1, -23.45,6.15) ">
		<g transform="matrix( 1.3848419189453125, 0, 0, 1, 3.4,11.55) ">
			<g>
				<g id="Symbol_1_0_Layer0_0_FILL_47_">
					<path class="st0" d="M69.3-20.6c0-0.7-0.4-1.1-1.1-1.1h-21c-0.7,0-1.1,0.4-1.1,1.1v1.4c0,0.7,0.4,1.1,1.1,1.1h21.1
						c0.7,0,1.1-0.4,1.1-1.1L69.3-20.6L69.3-20.6z"/>
				</g>
			</g>
		</g>
	</g>
	<g transform="matrix( 1, 0, 0, 1, -23.45,-2.55) ">
		<g transform="matrix( 1.3848419189453125, 0, 0, 1, 3.4,11.55) ">
			<g>
				<g id="Symbol_1_0_Layer0_0_FILL_46_">
					<path class="st0" d="M69.3-17.9c0-0.7-0.4-1.1-1.1-1.1h-21c-0.7,0-1.1,0.4-1.1,1.1v1.4c0,0.7,0.4,1.1,1.1,1.1h21.1
						c0.7,0,1.1-0.4,1.1-1.1L69.3-17.9L69.3-17.9z"/>
				</g>
			</g>
		</g>
	</g>
	<g transform="matrix( 1, 0, 0, 1, -23.45,-11.45) ">
		<g transform="matrix( 1.3848419189453125, 0, 0, 1, 3.4,11.55) ">
			<g>
				<g id="Symbol_1_0_Layer0_0_FILL_45_">
					<path class="st0" d="M69.3-15.1c0-0.7-0.4-1.1-1.1-1.1h-21c-0.7,0-1.1,0.4-1.1,1.1v1.4c0,0.7,0.4,1.1,1.1,1.1h21.1
						c0.7,0,1.1-0.4,1.1-1.1L69.3-15.1L69.3-15.1z"/>
				</g>
			</g>
		</g>
	</g>
</g>
</svg>
